# xmcd CD database file
#
# Track frame offsets:
#	150
#	16399
#	30282
#	46153
#	60927
#	76332
#	91613
#	103616
#	118863
#	134984
#	150715
#	167364
#	181508
#	197437
#	213781
#	232882
#	250318
#	265655
#	282320
#	297182
#	310905
#
# Disc length: 4348 seconds
#
# Revision: 1
# Processed by: cddbd v1.5.2PL0 Copyright (c) Steve Scherf et al.
# Submitted via: CDex 1.51
#
DISCID=0810fa15
DTITLE=Shy'm - A nos dix ans CD01
DYEAR=2015
DGENRE=Variété française
TTITLE0=Femme de couleur
TTITLE1=Oublie-moi
TTITLE2=T'es parti
TTITLE3=Victoire (Radio Edit)
TTITLE4=La première fois
TTITLE5=Si tu savais
TTITLE6=Je sais
TTITLE7=Je suis moi
TTITLE8=Prendre l'air
TTITLE9=Tourne (Radio Edit)
TTITLE10=En apesanteur (reprise)
TTITLE11=Et alors!
TTITLE12=On se fout de nous
TTITLE13=Et si (Radio Edit)
TTITLE14=Save my way
TTITLE15=La malice
TTITLE16=L'effet de serre
TTITLE17=On s'en va
TTITLE18=Silhouettes (Remix)
TTITLE19=Tandem (inédit)
TTITLE20=Il fait vivre (inédit)
EXTD=YEAR: 2015
EXTT0=
EXTT1=
EXTT2=
EXTT3=
EXTT4=
EXTT5=
EXTT6=
EXTT7=
EXTT8=
EXTT9=
EXTT10=
EXTT11=
EXTT12=
EXTT13=
EXTT14=
EXTT15=
EXTT16=
EXTT17=
EXTT18=
EXTT19=
EXTT20=
PLAYORDER=
